<svg width="512" height="512" viewBox="0 0 512 512" fill="none" xmlns="http://www.w3.org/2000/svg">
<path d="M456 104V152L240 96L24 152V104L240 48L456 104Z" fill="#B0D1F9"/>
<path d="M240 312H296V440H240V312Z" fill="#B0D1F9"/>
<path d="M184 312H240V440H184V312Z" fill="#B0D1F9"/>
<path d="M368 224V258.72C365.24 260.293 362.594 262.058 360.08 264H288V224C288 213.391 292.214 203.217 299.716 195.716C307.217 188.214 317.391 184 328 184C338.609 184 348.783 188.214 356.284 195.716C363.786 203.217 368 213.391 368 224V224Z" fill="#B0D1F9"/>
<path d="M192 224V264H112V224C112 213.391 116.214 203.217 123.716 195.716C131.217 188.214 141.391 184 152 184C162.609 184 172.783 188.214 180.284 195.716C187.786 203.217 192 213.391 192 224Z" fill="#B0D1F9"/>
<path d="M416 248.4C413.36 248.16 410.72 248 408 248C393.955 247.988 380.156 251.686 368 258.72C365.24 260.293 362.594 262.058 360.08 264C350.123 271.437 342.038 281.095 336.469 292.205C330.9 303.315 328 315.572 328 328C328 357.92 364.72 409.68 388.4 440C390.8 443.12 393.12 446 395.2 448.56C402.88 458.08 408 464 408 464C408 464 413.12 458.08 420.8 448.56C443.44 420.48 488 360.96 488 328C487.989 308.171 480.619 289.051 467.318 274.345C454.016 259.639 435.729 250.394 416 248.4V248.4ZM408 360C401.671 360 395.484 358.123 390.222 354.607C384.959 351.091 380.858 346.093 378.436 340.246C376.014 334.399 375.38 327.965 376.615 321.757C377.85 315.55 380.897 309.848 385.373 305.373C389.848 300.897 395.55 297.85 401.757 296.615C407.965 295.38 414.399 296.014 420.246 298.436C426.093 300.858 431.091 304.959 434.607 310.222C438.123 315.484 440 321.671 440 328C440 336.487 436.629 344.626 430.627 350.627C424.626 356.629 416.487 360 408 360Z" fill="#B0D1F9"/>
<path d="M368 328C368 335.911 370.346 343.645 374.741 350.223C379.136 356.801 385.384 361.928 392.693 364.955C400.002 367.983 408.044 368.775 415.804 367.231C423.563 365.688 430.69 361.878 436.284 356.284C441.878 350.69 445.688 343.563 447.231 335.804C448.775 328.044 447.983 320.002 444.955 312.693C441.928 305.384 436.801 299.136 430.223 294.741C423.645 290.346 415.911 288 408 288C397.395 288.013 387.228 292.231 379.73 299.73C372.231 307.228 368.013 317.395 368 328V328ZM432 328C432 332.747 430.592 337.387 427.955 341.334C425.318 345.28 421.57 348.357 417.184 350.173C412.799 351.99 407.973 352.465 403.318 351.539C398.662 350.613 394.386 348.327 391.029 344.971C387.673 341.614 385.387 337.338 384.461 332.682C383.535 328.027 384.01 323.201 385.827 318.816C387.643 314.43 390.72 310.682 394.666 308.045C398.613 305.408 403.253 304 408 304C414.365 304 420.47 306.529 424.971 311.029C429.471 315.53 432 321.635 432 328Z" fill="#265EC2"/>
<path d="M435.84 442.48C460.16 411.12 496 359.52 496 328C495.955 307.454 488.736 287.57 475.591 271.78C462.445 255.99 444.197 245.287 424 241.52V152L454 159.76C454.655 159.919 455.326 159.999 456 160C458.122 160 460.157 159.157 461.657 157.657C463.157 156.156 464 154.122 464 152V104C464.003 102.224 463.415 100.497 462.329 99.0925C461.243 97.6875 459.72 96.6839 458 96.2399L242 40.2399C240.686 39.92 239.314 39.92 238 40.2399L22.0001 96.2399C20.2805 96.6839 18.7576 97.6875 17.6712 99.0925C16.5849 100.497 15.997 102.224 16.0001 104V152C15.9939 153.223 16.2726 154.431 16.8141 155.528C17.3557 156.625 18.1452 157.581 19.1201 158.32C20.0857 159.06 21.2054 159.574 22.3962 159.823C23.5871 160.072 24.8187 160.051 26.0001 159.76L56.0001 152V440C56.0001 442.122 56.843 444.156 58.3433 445.657C59.8435 447.157 61.8784 448 64.0001 448H361.44C351.2 452.48 344 459.04 344 468C344 487.2 377.2 496 408 496C438.8 496 472 487.2 472 468C472 454.16 455.12 446.16 435.84 442.48V442.48ZM480 328C480 358.96 432.56 422.16 408 451.68C383.44 422.16 336 358.96 336 328C336 308.904 343.586 290.591 357.088 277.088C370.591 263.586 388.905 256 408 256C427.096 256 445.409 263.586 458.912 277.088C472.414 290.591 480 308.904 480 328V328ZM296 256V224C296.014 217.676 297.896 211.497 301.412 206.24C304.927 200.983 309.919 196.882 315.758 194.454C321.598 192.026 328.025 191.378 334.231 192.593C340.438 193.807 346.147 196.83 350.64 201.28C356.626 207.328 359.989 215.491 360 224V254.32L357.6 256H296ZM32.0001 141.68V110.16L240 56.2399L448 110.16V141.68L242 88.2399C240.686 87.92 239.314 87.92 238 88.2399L32.0001 141.68ZM232 432H192V320H232V432ZM288 432H248V320H288V432ZM304 432V312C304 309.878 303.157 307.843 301.657 306.343C300.157 304.843 298.122 304 296 304H184C181.878 304 179.844 304.843 178.343 306.343C176.843 307.843 176 309.878 176 312V432H72.0001V147.84L240 104.24L408 147.84V240C397.049 240.031 386.199 242.093 376 246.08V224C376 211.27 370.943 199.061 361.941 190.059C352.939 181.057 340.73 176 328 176C315.27 176 303.061 181.057 294.059 190.059C285.057 199.061 280 211.27 280 224V256H272V272H340.16C327.115 287.744 319.984 307.553 320 328C320 356.16 348.72 400.48 372.16 432H304ZM408 480C377.28 480 360.96 471.2 360 468.16C360.72 465.68 370.96 459.36 391.68 456.96C397.36 464 401.28 468.48 402 469.28C402.751 470.131 403.674 470.813 404.709 471.28C405.743 471.747 406.865 471.988 408 471.988C409.135 471.988 410.257 471.747 411.292 471.28C412.326 470.813 413.249 470.131 414 469.28C414.72 468.48 418.64 464 424.32 456.96C445.04 459.36 455.28 465.68 456 467.84C455.04 471.2 438.72 480 408 480V480Z" fill="#265EC2"/>
<path d="M208 368H224V384H208V368Z" fill="#265EC2"/>
<path d="M256 368H272V384H256V368Z" fill="#265EC2"/>
<path d="M200 256V224C200 211.27 194.943 199.061 185.941 190.059C176.939 181.057 164.73 176 152 176C139.27 176 127.061 181.057 118.059 190.059C109.057 199.061 104 211.27 104 224V256H96V272H208V256H200ZM184 256H120V224C120 215.513 123.371 207.374 129.373 201.373C135.374 195.371 143.513 192 152 192C160.487 192 168.626 195.371 174.627 201.373C180.629 207.374 184 215.513 184 224V256Z" fill="#265EC2"/>
</svg>
