<svg width="512" height="512" viewBox="0 0 512 512" fill="none" xmlns="http://www.w3.org/2000/svg">
<path d="M487.28 221.68C488.775 223.162 489.962 224.925 490.772 226.868C491.582 228.811 491.999 230.895 491.999 233C491.999 235.105 491.582 237.189 490.772 239.132C489.962 241.075 488.775 242.838 487.28 244.32L464.64 266.96L442 244.32L464.64 221.68C466.126 220.192 467.891 219.012 469.833 218.207C471.775 217.402 473.857 216.987 475.96 216.987C478.063 216.987 480.145 217.402 482.087 218.207C484.029 219.012 485.794 220.192 487.28 221.68Z" fill="#B0D1F9"/>
<path d="M464.64 266.96L442.08 289.6L442 289.52L419.36 266.96L442 244.32L464.64 266.96Z" fill="#B0D1F9"/>
<path d="M344 387.6L317.6 414L298.8 420.24C297.395 420.718 295.884 420.793 294.439 420.457C292.994 420.121 291.672 419.386 290.623 418.337C289.573 417.288 288.839 415.966 288.503 414.52C288.166 413.075 288.241 411.565 288.72 410.16L294.96 391.36L344 342.32L368 318.32L383.92 302.32L419.36 266.96L442 289.52L442.08 289.6L344 387.6Z" fill="#B0D1F9"/>
<path d="M111.6 200H128C129.054 199.989 130.099 200.189 131.074 200.587C132.05 200.985 132.936 201.574 133.681 202.319C134.426 203.064 135.015 203.95 135.413 204.926C135.811 205.901 136.011 206.946 136 208V240C136 242.122 135.157 244.156 133.657 245.657C132.157 247.157 130.122 248 128 248H96C93.8783 248 91.8434 247.157 90.3431 245.657C88.8429 244.156 88 242.122 88 240V208C88 205.878 88.8429 203.843 90.3431 202.343C91.8434 200.843 93.8783 200 96 200H111.6Z" fill="#B0D1F9"/>
<path d="M111.6 360H128C129.054 359.989 130.099 360.189 131.074 360.587C132.05 360.985 132.936 361.574 133.681 362.319C134.426 363.064 135.015 363.95 135.413 364.926C135.811 365.901 136.011 366.946 136 368V400C136 402.122 135.157 404.156 133.657 405.657C132.157 407.157 130.122 408 128 408H96C93.8783 408 91.8434 407.157 90.3431 405.657C88.8429 404.156 88 402.122 88 400V368C88 365.878 88.8429 363.843 90.3431 362.343C91.8434 360.843 93.8783 360 96 360H111.6Z" fill="#B0D1F9"/>
<path d="M111.6 280H128C129.054 279.989 130.099 280.189 131.074 280.587C132.05 280.985 132.936 281.574 133.681 282.319C134.426 283.064 135.015 283.95 135.413 284.926C135.811 285.901 136.011 286.946 136 288V320C136 322.122 135.157 324.156 133.657 325.657C132.157 327.157 130.122 328 128 328H96C93.8783 328 91.8434 327.157 90.3431 325.657C88.8429 324.156 88 322.122 88 320V288C88 285.878 88.8429 283.843 90.3431 282.343C91.8434 280.843 93.8783 280 96 280H111.6Z" fill="#B0D1F9"/>
<path d="M352 152C365.255 152 376 141.255 376 128C376 114.745 365.255 104 352 104C338.745 104 328 114.745 328 128C328 141.255 338.745 152 352 152Z" fill="#B0D1F9"/>
<path d="M284.96 47.9198C286.307 46.5853 288.083 45.7723 289.973 45.6258C291.863 45.4793 293.744 46.0088 295.28 47.1198L304.72 53.8398C313.392 48.3352 322.944 44.3576 332.96 42.0798L334.88 30.7198C335.185 28.8405 336.149 27.1314 337.601 25.8997C339.053 24.6679 340.896 23.9943 342.8 23.9998H361.2C363.104 23.9943 364.947 24.6679 366.399 25.8997C367.851 27.1314 368.815 28.8405 369.12 30.7198L371.04 42.0798C381.056 44.3576 390.608 48.3352 399.28 53.8398L408.72 47.1198C410.256 46.0088 412.137 45.4793 414.027 45.6258C415.917 45.7723 417.694 46.5853 419.04 47.9198L432.08 60.9598C433.414 62.3063 434.227 64.0829 434.374 65.973C434.521 67.863 433.991 69.7437 432.88 71.2798L426.16 80.7198C431.665 89.3921 435.642 98.9437 437.92 108.96L449.28 110.88C451.159 111.184 452.868 112.149 454.1 113.601C455.332 115.053 456.006 116.896 456 118.8V137.2C456.006 139.104 455.332 140.947 454.1 142.399C452.868 143.85 451.159 144.815 449.28 145.12L437.92 147.04C435.642 157.056 431.665 166.607 426.16 175.28L432.88 184.72C433.991 186.256 434.521 188.137 434.374 190.027C434.227 191.917 433.414 193.693 432.08 195.04L419.04 208.08C417.694 209.414 415.917 210.227 414.027 210.374C412.137 210.52 410.256 209.991 408.72 208.88L399.28 202.16C390.608 207.664 381.056 211.642 371.04 213.92L369.12 225.28C368.815 227.159 367.851 228.868 366.399 230.1C364.947 231.332 363.104 232.005 361.2 232H342.8C340.896 232.005 339.053 231.332 337.601 230.1C336.149 228.868 335.185 227.159 334.88 225.28L332.96 213.92C322.944 211.642 313.392 207.664 304.72 202.16L295.28 208.88C293.744 209.991 291.863 210.52 289.973 210.374C288.083 210.227 286.307 209.414 284.96 208.08L271.92 195.04C270.586 193.693 269.773 191.917 269.626 190.027C269.48 188.137 270.009 186.256 271.12 184.72L277.84 175.28C272.335 166.607 268.358 157.056 266.08 147.04L254.72 145.12C252.841 144.815 251.132 143.85 249.9 142.399C248.668 140.947 247.995 139.104 248 137.2V118.8C247.995 116.896 248.668 115.053 249.9 113.601C251.132 112.149 252.841 111.184 254.72 110.88L266.08 108.96C268.358 98.9437 272.335 89.3921 277.84 80.7198L271.12 71.2798C270.009 69.7437 269.48 67.863 269.626 65.973C269.773 64.0829 270.586 62.3063 271.92 60.9598L284.96 47.9198ZM408 128C408 116.924 404.716 106.097 398.562 96.8879C392.409 87.6787 383.663 80.501 373.43 76.2625C363.198 72.024 351.938 70.915 341.075 73.0758C330.212 75.2366 320.234 80.5701 312.402 88.4018C304.57 96.2336 299.237 106.212 297.076 117.075C294.915 127.938 296.024 139.197 300.263 149.43C304.501 159.663 311.679 168.409 320.888 174.562C330.097 180.715 340.924 184 352 184C359.356 184.005 366.64 182.56 373.437 179.748C380.233 176.935 386.409 172.811 391.61 167.609C396.811 162.408 400.936 156.233 403.748 149.436C406.56 142.64 408.005 135.355 408 128Z" fill="#B0D1F9"/>
<path d="M346.608 112.928C350.128 111.667 353.978 111.678 357.491 112.96C361.003 114.242 363.955 116.714 365.835 119.945C367.715 123.177 368.404 126.965 367.782 130.652C367.16 134.339 365.266 137.691 362.43 140.127C359.594 142.564 355.994 143.93 352.256 143.988C348.518 144.047 344.877 142.795 341.965 140.449C339.054 138.103 337.056 134.812 336.319 131.146C335.581 127.481 336.151 123.673 337.928 120.384L323.872 112.744C320.322 119.309 319.183 126.911 320.654 134.229C322.124 141.547 326.112 148.119 331.924 152.802C337.736 157.486 345.005 159.986 352.468 159.868C359.931 159.75 367.117 157.022 372.778 152.157C378.439 147.292 382.217 140.598 383.456 133.237C384.695 125.876 383.317 118.314 379.56 111.864C375.804 105.414 369.907 100.483 362.893 97.9286C355.88 95.374 348.193 95.3567 341.168 97.8798L346.608 112.928Z" fill="#265EC2"/>
<path d="M345.04 80.4959L342.744 64.6719C329.103 66.7034 316.478 73.0713 306.736 82.8336C296.993 92.5959 290.652 105.234 288.648 118.88L304.488 121.152C305.989 110.92 310.742 101.443 318.045 94.1218C325.348 86.8003 334.813 82.0229 345.04 80.4959V80.4959Z" fill="#265EC2"/>
<path d="M399.504 121.08L415.336 118.8C413.316 105.171 406.968 92.5516 397.229 82.8053C387.49 73.0591 374.876 66.7019 361.248 64.6719L358.96 80.4959C369.175 82.0217 378.63 86.7897 385.93 94.0967C393.23 101.404 397.988 110.863 399.504 121.08V121.08Z" fill="#265EC2"/>
<path d="M358.856 175.512L361.12 191.36C374.776 189.351 387.422 183 397.188 173.246C406.954 163.492 413.32 150.853 415.344 137.2L399.504 134.92C397.987 145.154 393.215 154.628 385.894 161.939C378.573 169.249 369.093 174.009 358.856 175.512V175.512Z" fill="#265EC2"/>
<path d="M342.864 191.352L345.136 175.504C334.878 174.003 325.379 169.229 318.053 161.894C310.727 154.558 305.967 145.052 304.48 134.792L288.632 137.024C290.615 150.712 296.965 163.395 306.737 173.183C316.508 182.972 329.179 189.344 342.864 191.352V191.352Z" fill="#265EC2"/>
<path d="M336 480H64V192H48V480C48 484.243 49.6857 488.313 52.6863 491.314C55.6869 494.314 59.7565 496 64 496H336C340.243 496 344.313 494.314 347.314 491.314C350.314 488.313 352 484.243 352 480V424H336V480Z" fill="#265EC2"/>
<path d="M64 144H80C80 152.487 83.3714 160.626 89.3726 166.627C95.3737 172.628 103.513 176 112 176V160C107.757 160 103.687 158.314 100.686 155.314C97.6857 152.313 96 148.243 96 144H160C160 152.487 163.371 160.626 169.373 166.627C175.374 172.628 183.513 176 192 176V160C187.757 160 183.687 158.314 180.686 155.314C177.686 152.313 176 148.243 176 144H241.6C242.69 146.348 244.335 148.396 246.394 149.965C248.453 151.535 250.863 152.579 253.416 153.008L259.68 154.048C261.729 161.299 264.632 168.281 268.328 174.848L264.616 180.04C262.404 183.118 261.361 186.884 261.673 190.662C261.986 194.439 263.633 197.982 266.32 200.656L279.368 213.704C282.039 216.392 285.581 218.04 289.358 218.352C293.135 218.664 296.899 217.621 299.976 215.408L305.176 211.696C311.741 215.395 318.724 218.298 325.976 220.344L327.024 226.608C327.629 230.348 329.547 233.751 332.433 236.205C335.32 238.659 338.987 240.005 342.776 240H361.224C365.015 240.011 368.685 238.671 371.577 236.219C374.468 233.767 376.391 230.365 377 226.624L378.048 220.36C385.3 218.314 392.283 215.411 398.848 211.712L404.048 215.424C407.125 217.635 410.889 218.678 414.666 218.366C418.442 218.053 421.984 216.406 424.656 213.72L437.704 200.672C440.391 198 442.038 194.458 442.35 190.682C442.662 186.905 441.619 183.141 439.408 180.064L435.696 174.864C439.392 168.297 442.295 161.315 444.344 154.064L450.632 153.024C454.371 152.4 457.767 150.47 460.215 147.576C462.663 144.683 464.004 141.014 464 137.224V118.776C464 114.987 462.656 111.321 460.206 108.431C457.757 105.541 454.361 103.613 450.624 102.992L444.36 101.952C442.311 94.7005 439.408 87.7183 435.712 81.1519L439.424 75.9599C441.636 72.8814 442.679 69.116 442.367 65.3382C442.054 61.5605 440.407 58.0174 437.72 55.3439L424.672 42.2799C422.002 39.589 418.46 37.9389 414.682 37.6266C410.905 37.3142 407.139 38.36 404.064 40.5759L398.864 44.2879C392.299 40.5889 385.316 37.6858 378.064 35.6399L377.016 29.3759C376.407 25.6316 374.482 22.2275 371.587 19.7756C368.692 17.3237 365.018 15.9849 361.224 15.9999H342.776C338.985 15.9887 335.315 17.3292 332.423 19.7808C329.532 22.2323 327.609 25.6343 327 29.3759L325.952 35.6399C318.7 37.6858 311.717 40.5889 305.152 44.2879L299.952 40.5759C296.877 38.36 293.111 37.3142 289.334 37.6266C285.556 37.9389 282.014 39.589 279.344 42.2799L266.28 55.3279C263.593 58.0001 261.946 61.5418 261.634 65.3182C261.322 69.0945 262.365 72.8587 264.576 75.9359L268.288 81.1359C264.592 87.7023 261.689 94.6845 259.64 101.936L253.352 102.976C249.616 103.603 246.224 105.535 243.779 108.428C241.334 111.321 239.995 114.988 240 118.776V128H224C224 119.513 220.629 111.374 214.627 105.372C208.626 99.3713 200.487 95.9999 192 95.9999C183.513 95.9999 175.374 99.3713 169.373 105.372C163.371 111.374 160 119.513 160 128H144C144 119.513 140.629 111.374 134.627 105.372C128.626 99.3713 120.487 95.9999 112 95.9999C103.513 95.9999 95.3737 99.3713 89.3726 105.372C83.3714 111.374 80 119.513 80 128H64C59.7565 128 55.6869 129.686 52.6863 132.686C49.6857 135.687 48 139.756 48 144V176H64V144ZM267.424 116.872C268.999 116.611 270.46 115.885 271.619 114.788C272.778 113.69 273.582 112.27 273.928 110.712C275.945 101.6 279.552 92.9154 284.584 85.0559C285.443 83.7108 285.879 82.1396 285.838 80.5444C285.797 78.9491 285.279 77.4027 284.352 76.1039L277.6 66.6399L290.64 53.5999L300.104 60.3599C301.403 61.287 302.949 61.8045 304.544 61.8458C306.14 61.8871 307.711 61.4505 309.056 60.5919C316.913 55.5616 325.595 51.9546 334.704 49.9359C336.263 49.5921 337.683 48.7898 338.782 47.6321C339.882 46.4745 340.609 45.0145 340.872 43.4399L342.776 31.9999H361.224L363.128 43.4319C363.391 45.0065 364.118 46.4665 365.218 47.6241C366.317 48.7818 367.737 49.5841 369.296 49.9279C378.405 51.9466 387.087 55.5536 394.944 60.5839C396.289 61.4425 397.86 61.8791 399.456 61.8378C401.051 61.7965 402.597 61.279 403.896 60.3519L413.36 53.5999L426.4 66.6399L419.648 76.1039C418.721 77.4027 418.203 78.9491 418.162 80.5444C418.121 82.1396 418.557 83.7108 419.416 85.0559C424.448 92.9154 428.055 101.6 430.072 110.712C430.418 112.27 431.222 113.69 432.381 114.788C433.54 115.885 435.001 116.611 436.576 116.872L448 118.776V137.224L436.576 139.128C435.001 139.389 433.54 140.114 432.381 141.212C431.222 142.31 430.418 143.729 430.072 145.288C428.055 154.399 424.448 163.084 419.416 170.944C418.557 172.289 418.121 173.86 418.162 175.455C418.203 177.051 418.721 178.597 419.648 179.896L426.4 189.36L413.36 202.4L403.896 195.64C402.597 194.713 401.051 194.195 399.456 194.154C397.86 194.113 396.289 194.549 394.944 195.408C387.087 200.438 378.405 204.045 369.296 206.064C367.737 206.408 366.317 207.21 365.218 208.368C364.118 209.525 363.391 210.985 363.128 212.56L361.224 224H342.776L340.872 212.568C340.609 210.993 339.882 209.533 338.782 208.376C337.683 207.218 336.263 206.416 334.704 206.072C325.595 204.053 316.913 200.446 309.056 195.416C307.711 194.557 306.14 194.121 304.544 194.162C302.949 194.203 301.403 194.721 300.104 195.648L290.64 202.4L277.6 189.36L284.352 179.896C285.279 178.597 285.797 177.051 285.838 175.455C285.879 173.86 285.443 172.289 284.584 170.944C279.552 163.084 275.945 154.399 273.928 145.288C273.582 143.729 272.778 142.31 271.619 141.212C270.46 140.114 268.999 139.389 267.424 139.128L256 137.224V118.776L267.424 116.872ZM192 112C196.243 112 200.313 113.686 203.314 116.686C206.314 119.687 208 123.756 208 128H176C176 123.756 177.686 119.687 180.686 116.686C183.687 113.686 187.757 112 192 112V112ZM112 112C116.243 112 120.313 113.686 123.314 116.686C126.314 119.687 128 123.756 128 128H96C96 123.756 97.6857 119.687 100.686 116.686C103.687 113.686 107.757 112 112 112V112Z" fill="#265EC2"/>
<path d="M111.616 208V192H96C91.7565 192 87.6869 193.686 84.6863 196.686C81.6857 199.687 80 203.757 80 208V240C80 244.243 81.6857 248.313 84.6863 251.314C87.6869 254.314 91.7565 256 96 256H128C132.243 256 136.313 254.314 139.314 251.314C142.314 248.313 144 244.243 144 240V224H128V240H96V208H111.616Z" fill="#265EC2"/>
<path d="M80 320C80 324.243 81.6857 328.313 84.6863 331.314C87.6869 334.314 91.7565 336 96 336H128C132.243 336 136.313 334.314 139.314 331.314C142.314 328.313 144 324.243 144 320V304H128V320H96V288H111.616V272H96C91.7565 272 87.6869 273.686 84.6863 276.686C81.6857 279.687 80 283.757 80 288V320Z" fill="#265EC2"/>
<path d="M80 400C80 404.243 81.6857 408.313 84.6863 411.314C87.6869 414.314 91.7565 416 96 416H128C132.243 416 136.313 414.314 139.314 411.314C142.314 408.313 144 404.243 144 400V384H128V400H96V368H111.616V352H96C91.7565 352 87.6869 353.686 84.6863 356.686C81.6857 359.687 80 363.757 80 368V400Z" fill="#265EC2"/>
<path d="M106.312 218.335L146.306 178.342L157.618 189.654L117.624 229.647L106.312 218.335Z" fill="#265EC2"/>
<path d="M106.296 298.327L146.289 258.334L157.601 269.646L117.608 309.639L106.296 298.327Z" fill="#265EC2"/>
<path d="M106.288 378.319L146.282 338.326L157.594 349.638L117.6 389.631L106.288 378.319Z" fill="#265EC2"/>
<path d="M492.928 216C488.356 211.637 482.28 209.202 475.96 209.202C469.64 209.202 463.564 211.637 458.992 216L378.304 296.704L389.6 308L419.376 278.224L430.688 289.536L313.248 407.016L296.272 412.672L301.928 395.696L373.6 324L362.288 312.688L352 323.008V256H336V339.008L289.28 385.72C288.401 386.596 287.739 387.664 287.344 388.84L286.296 392.04H160V408.04H281.024C280.295 410.424 280.133 412.945 280.551 415.403C280.969 417.861 281.955 420.187 283.432 422.196C284.909 424.205 286.834 425.841 289.055 426.974C291.276 428.106 293.731 428.704 296.224 428.72C297.957 428.729 299.681 428.459 301.328 427.92L320.088 421.672C321.265 421.275 322.336 420.612 323.216 419.736L492.928 249.952C497.427 245.451 499.955 239.348 499.955 232.984C499.955 226.62 497.427 220.517 492.928 216.016V216ZM430.704 266.912L442.016 255.6L453.328 266.912L442.016 278.24L430.704 266.912ZM481.6 238.64L464.64 255.616L453.328 244.304L470.304 227.328C471.827 225.872 473.853 225.059 475.96 225.059C478.067 225.059 480.093 225.872 481.616 227.328C483.116 228.828 483.958 230.863 483.958 232.984C483.958 235.105 483.116 237.14 481.616 238.64H481.6Z" fill="#265EC2"/>
<path d="M211.4 456.472C211.529 456.875 211.69 457.269 211.88 457.648C213.014 459.917 214.673 461.884 216.717 463.386C218.762 464.889 221.135 465.883 223.64 466.288C224.478 466.428 225.326 466.498 226.176 466.496C228.279 466.497 230.363 466.084 232.307 465.28C234.25 464.475 236.016 463.295 237.504 461.808L248 451.312L256 459.312C257.481 460.803 259.244 461.985 261.186 462.789C263.128 463.594 265.21 464.005 267.312 464H288V448H267.312L259.312 440C256.311 437 252.242 435.315 248 435.315C243.757 435.315 239.688 437 236.688 440L226.288 450.4L219.936 430.152C219.806 429.748 219.646 429.355 219.456 428.976C218.407 426.881 216.911 425.042 215.074 423.589C213.237 422.136 211.103 421.104 208.823 420.566C206.543 420.028 204.172 419.997 201.879 420.476C199.586 420.954 197.426 421.931 195.552 423.336C195.167 423.623 194.808 423.945 194.48 424.296L170.136 450.56L181.864 461.44L205.064 436.376L211.4 456.472Z" fill="#265EC2"/>
<path d="M304 448H320V464H304V448Z" fill="#265EC2"/>
<path d="M160 280H256V296H160V280Z" fill="#265EC2"/>
<path d="M160 312H288V328H160V312Z" fill="#265EC2"/>
<path d="M160 360H256V376H160V360Z" fill="#265EC2"/>
<path d="M160 200H256V216H160V200Z" fill="#265EC2"/>
<path d="M160 232H288V248H160V232Z" fill="#265EC2"/>
</svg>
