<svg width="512" height="512" viewBox="0 0 512 512" fill="none" xmlns="http://www.w3.org/2000/svg">
<path d="M400 448V456H392C394.122 456 396.157 455.157 397.657 453.657C399.157 452.157 400 450.122 400 448Z" fill="#B0D1F9"/>
<path d="M472 232H328C323.76 232.013 319.698 233.702 316.7 236.7C313.702 239.698 312.013 243.76 312 248V472C312.013 476.24 313.702 480.302 316.7 483.3C319.698 486.298 323.76 487.987 328 488H472C476.24 487.987 480.302 486.298 483.3 483.3C486.298 480.302 487.987 476.24 488 472V248C487.987 243.76 486.298 239.698 483.3 236.7C480.302 233.702 476.24 232.013 472 232V232ZM456 400V456H344V344H456V400ZM456 312H344V264H456V312Z" fill="#B0D1F9"/>
<path d="M272 200H32C29.8783 200 27.8434 200.843 26.3431 202.343C24.8429 203.843 24 205.878 24 208V320C24 322.122 24.8429 324.157 26.3431 325.657C27.8434 327.157 29.8783 328 32 328H272C274.122 328 276.157 327.157 277.657 325.657C279.157 324.157 280 322.122 280 320V208C280 205.878 279.157 203.843 277.657 202.343C276.157 200.843 274.122 200 272 200ZM152 296C145.671 296 139.484 294.123 134.222 290.607C128.959 287.091 124.858 282.093 122.436 276.246C120.014 270.399 119.38 263.965 120.615 257.757C121.85 251.55 124.897 245.848 129.373 241.373C133.848 236.897 139.55 233.85 145.757 232.615C151.965 231.38 158.399 232.014 164.246 234.436C170.093 236.858 175.091 240.959 178.607 246.222C182.123 251.484 184 257.671 184 264C184 272.487 180.629 280.626 174.627 286.627C168.626 292.629 160.487 296 152 296Z" fill="#B0D1F9"/>
<path d="M472 224H408V24C408 21.8783 407.157 19.8434 405.657 18.3431C404.157 16.8429 402.122 16 400 16C387.056 16 381.16 27.808 376.8 36.424C373.456 43.2 370.832 48 368 48C365.168 48 362.608 43.2 359.24 36.456C354.936 27.824 349.04 16 336.08 16C323.12 16 317.232 27.808 312.92 36.424C309.528 43.2 306.912 48 304.08 48C301.248 48 298.624 43.2 295.232 36.424C290.92 27.808 285.024 16 272.08 16C259.136 16 253.232 27.808 248.92 36.424C245.528 43.2 242.912 48 240.08 48C237.248 48 234.624 43.2 231.232 36.424C226.928 27.808 221.024 16 208.08 16C195.136 16 189.232 27.808 184.88 36.424C181.528 43.2 178.912 48 176.08 48C173.248 48 170.624 43.2 167.232 36.424C162.928 27.808 157.024 16 144.08 16C131.136 16 125.232 27.808 120.88 36.424C117.528 43.2 114.912 48 112.08 48C109.248 48 106.552 43.2 103.152 36.384C98.832 27.784 92.928 16 80 16C77.8783 16 75.8434 16.8429 74.3431 18.3431C72.8429 19.8434 72 21.8783 72 24V192H32C27.7565 192 23.6869 193.686 20.6863 196.686C17.6857 199.687 16 203.757 16 208V320C16 324.243 17.6857 328.313 20.6863 331.314C23.6869 334.314 27.7565 336 32 336H72V448C72 452.243 73.6857 456.313 76.6863 459.314C79.6869 462.314 83.7565 464 88 464H304V472C304 478.365 306.529 484.47 311.029 488.971C315.53 493.471 321.635 496 328 496H472C478.365 496 484.47 493.471 488.971 488.971C493.471 484.47 496 478.365 496 472V248C496 241.635 493.471 235.53 488.971 231.029C484.47 226.529 478.365 224 472 224V224ZM32 208H272V320H32V208ZM88 448V336H272C276.243 336 280.313 334.314 283.314 331.314C286.314 328.313 288 324.243 288 320V208C288 203.757 286.314 199.687 283.314 196.686C280.313 193.686 276.243 192 272 192H88V41.888C88.28 42.424 88.56 42.984 88.84 43.552C93.168 52.184 99.088 64 112.08 64C125.072 64 130.928 52.192 135.2 43.576C138.624 36.8 141.24 32 144.08 32C146.92 32 149.528 36.8 152.88 43.576C157.232 52.192 163.136 64 176.08 64C189.024 64 194.928 52.192 199.2 43.576C202.624 36.8 205.24 32 208.08 32C210.92 32 213.528 36.8 216.88 43.576C221.232 52.192 227.136 64 240.08 64C253.024 64 258.928 52.192 263.2 43.576C266.624 36.8 269.24 32 272.08 32C274.92 32 277.528 36.8 280.92 43.576C285.232 52.192 291.136 64 304.08 64C317.024 64 322.92 52.192 327.2 43.576C330.624 36.8 333.24 32 336.08 32C338.92 32 341.536 36.8 344.92 43.6C349.216 52.208 355.104 64 368 64C380.896 64 386.84 52.192 391.2 43.576L392 41.904V224H328C321.635 224 315.53 226.529 311.029 231.029C306.529 235.53 304 241.635 304 248V448H88ZM480 472C480 474.122 479.157 476.157 477.657 477.657C476.157 479.157 474.122 480 472 480H328C325.878 480 323.843 479.157 322.343 477.657C320.843 476.157 320 474.122 320 472V248C320 245.878 320.843 243.843 322.343 242.343C323.843 240.843 325.878 240 328 240H472C474.122 240 476.157 240.843 477.657 242.343C479.157 243.843 480 245.878 480 248V472Z" fill="#265EC2"/>
<path d="M456 256H344C341.878 256 339.843 256.843 338.343 258.343C336.843 259.843 336 261.878 336 264V312C336 314.122 336.843 316.157 338.343 317.657C339.843 319.157 341.878 320 344 320H456C458.122 320 460.157 319.157 461.657 317.657C463.157 316.157 464 314.122 464 312V264C464 261.878 463.157 259.843 461.657 258.343C460.157 256.843 458.122 256 456 256V256ZM448 304H352V272H448V304Z" fill="#265EC2"/>
<path d="M456 336H344C341.878 336 339.843 336.843 338.343 338.343C336.843 339.843 336 341.878 336 344V456C336 458.122 336.843 460.157 338.343 461.657C339.843 463.157 341.878 464 344 464H456C458.122 464 460.157 463.157 461.657 461.657C463.157 460.157 464 458.122 464 456V344C464 341.878 463.157 339.843 461.657 338.343C460.157 336.843 458.122 336 456 336ZM448 392H408V352H448V392ZM392 352V392H352V352H392ZM352 408H392V448H352V408ZM408 448V408H448V448H408Z" fill="#265EC2"/>
<path d="M232 120H312V136H232V120Z" fill="#265EC2"/>
<path d="M232 152H312V168H232V152Z" fill="#265EC2"/>
<path d="M136 368H232V384H136V368Z" fill="#265EC2"/>
<path d="M136 400H232V416H136V400Z" fill="#265EC2"/>
<path d="M160 104H176C178.122 104 180.157 104.843 181.657 106.343C183.157 107.843 184 109.878 184 112H200C200 105.635 197.471 99.5303 192.971 95.0294C188.47 90.5286 182.365 88 176 88V80H160V88C153.635 88 147.53 90.5286 143.029 95.0294C138.529 99.5303 136 105.635 136 112C136 118.365 138.529 124.47 143.029 128.971C147.53 133.471 153.635 136 160 136H176C178.122 136 180.157 136.843 181.657 138.343C183.157 139.843 184 141.878 184 144C184 146.122 183.157 148.157 181.657 149.657C180.157 151.157 178.122 152 176 152H160C157.878 152 155.843 151.157 154.343 149.657C152.843 148.157 152 146.122 152 144H136C136 150.365 138.529 156.47 143.029 160.971C147.53 165.471 153.635 168 160 168V176H176V168C182.365 168 188.47 165.471 192.971 160.971C197.471 156.47 200 150.365 200 144C200 137.635 197.471 131.53 192.971 127.029C188.47 122.529 182.365 120 176 120H160C157.878 120 155.843 119.157 154.343 117.657C152.843 116.157 152 114.122 152 112C152 109.878 152.843 107.843 154.343 106.343C155.843 104.843 157.878 104 160 104Z" fill="#265EC2"/>
<path d="M152 224C144.089 224 136.355 226.346 129.777 230.741C123.199 235.136 118.072 241.384 115.045 248.693C112.017 256.002 111.225 264.044 112.769 271.804C114.312 279.563 118.122 286.69 123.716 292.284C129.31 297.878 136.437 301.688 144.196 303.231C151.956 304.775 159.998 303.983 167.307 300.955C174.616 297.928 180.864 292.801 185.259 286.223C189.654 279.645 192 271.911 192 264C191.987 253.395 187.769 243.228 180.27 235.73C172.772 228.231 162.605 224.013 152 224V224ZM152 288C147.253 288 142.613 286.592 138.666 283.955C134.72 281.318 131.643 277.57 129.827 273.184C128.01 268.799 127.535 263.973 128.461 259.318C129.387 254.662 131.673 250.386 135.029 247.029C138.386 243.673 142.662 241.387 147.318 240.461C151.973 239.535 156.799 240.01 161.184 241.827C165.57 243.643 169.318 246.72 171.955 250.666C174.592 254.613 176 259.253 176 264C176 270.365 173.471 276.47 168.971 280.971C164.47 285.471 158.365 288 152 288Z" fill="#265EC2"/>
<path d="M48 232V256H64V240H80V224H56C53.8783 224 51.8434 224.843 50.3431 226.343C48.8429 227.843 48 229.878 48 232Z" fill="#265EC2"/>
<path d="M256 224H232V240H248V256H264V232C264 229.878 263.157 227.843 261.657 226.343C260.157 224.843 258.122 224 256 224Z" fill="#265EC2"/>
<path d="M64 272H48V296C48 298.122 48.8429 300.157 50.3431 301.657C51.8434 303.157 53.8783 304 56 304H80V288H64V272Z" fill="#265EC2"/>
<path d="M248 288H232V304H256C258.122 304 260.157 303.157 261.657 301.657C263.157 300.157 264 298.122 264 296V272H248V288Z" fill="#265EC2"/>
<path d="M248 368H280V384H248V368Z" fill="#265EC2"/>
<path d="M248 400H280V416H248V400Z" fill="#265EC2"/>
</svg>
