<svg width="512" height="512" viewBox="0 0 512 512" fill="none" xmlns="http://www.w3.org/2000/svg">
<path d="M312.48 311.68C302.403 319.104 294.213 328.794 288.57 339.967C282.928 351.14 279.993 363.483 280 376V456C275.757 456 271.687 457.686 268.686 460.686C265.686 463.687 264 467.757 264 472C264 476.243 265.686 480.313 268.686 483.314C271.687 486.314 275.757 488 280 488H208L224 464L208.8 327.2L216 320L240 336L262.32 291.36L297.68 304.64C302.811 306.547 307.763 308.903 312.48 311.68Z" fill="#B0D1F9"/>
<path d="M296 72V112L280 128H267.76C261.819 127.986 255.998 126.327 250.942 123.206C245.887 120.085 241.795 115.625 239.12 110.32L232 96L213.92 110.48C199.729 121.833 182.094 128.013 163.92 128H120L80 104L104 72L72 24H248C260.73 24 272.939 29.0571 281.941 38.0589C290.943 47.0606 296 59.2696 296 72V72Z" fill="#B0D1F9"/>
<path d="M262.32 291.36L240 336L216 320L208 296L232 280L262.32 291.36Z" fill="#B0D1F9"/>
<path d="M192 296L184 320L160 336L137.68 291.36L168 280L192 296Z" fill="#B0D1F9"/>
<path d="M104 488H40V394.56C39.9955 375.009 45.9606 355.923 57.0974 339.854C68.2341 323.785 84.0117 311.499 102.32 304.64L137.68 291.36L160 336L184 320L191.2 327.2L176 464L192 488H104Z" fill="#B0D1F9"/>
<path d="M160 152H176V168H160V152Z" fill="#265EC2"/>
<path d="M224 152H240V168H224V152Z" fill="#265EC2"/>
<path d="M240 192H224C224 198.365 221.471 204.47 216.971 208.971C212.47 213.471 206.365 216 200 216C193.635 216 187.53 213.471 183.029 208.971C178.529 204.47 176 198.365 176 192H160C160 202.609 164.214 212.783 171.716 220.284C179.217 227.786 189.391 232 200 232C210.609 232 220.783 227.786 228.284 220.284C235.786 212.783 240 202.609 240 192V192Z" fill="#265EC2"/>
<path d="M480 449.368V376C479.966 356.8 473.66 338.137 462.042 322.851C450.424 307.565 434.13 296.493 415.64 291.32C415.878 290.229 415.998 289.116 416 288V280C415.992 277.678 415.476 275.387 414.487 273.286C413.499 271.185 412.063 269.327 410.28 267.84L423.432 234.976C423.919 233.762 424.1 232.446 423.96 231.145C423.821 229.845 423.364 228.598 422.63 227.515C421.897 226.431 420.909 225.544 419.753 224.932C418.597 224.319 417.308 223.999 416 224H336C334.692 223.999 333.403 224.319 332.247 224.932C331.091 225.544 330.103 226.431 329.37 227.515C328.636 228.598 328.179 229.845 328.04 231.145C327.9 232.446 328.081 233.762 328.568 234.976L341.72 267.84C339.937 269.327 338.501 271.185 337.513 273.286C336.524 275.387 336.008 277.678 336 280V288C336.002 289.116 336.122 290.229 336.36 291.32C327.708 293.726 319.479 297.45 311.96 302.36C308.253 300.382 304.424 298.642 300.496 297.152L240 274.456V262.288C253.393 255.431 264.806 245.256 273.149 232.734C281.492 220.212 286.486 205.761 287.656 190.76C292.285 192.081 297.152 192.341 301.895 191.521C306.638 190.7 311.135 188.82 315.051 186.02C318.967 183.221 322.2 179.574 324.511 175.351C326.822 171.128 328.15 166.438 328.397 161.631C328.644 156.824 327.804 152.023 325.938 147.585C324.072 143.148 321.229 139.189 317.621 136.003C314.013 132.816 309.732 130.485 305.098 129.183C300.464 127.88 295.596 127.64 290.856 128.48L301.672 117.656C303.167 116.153 304.004 114.119 304 112V72C303.983 57.1531 298.078 42.9191 287.579 32.4207C277.081 21.9224 262.847 16.0169 248 16H72C70.5517 15.9998 69.1304 16.3928 67.8879 17.137C66.6454 17.8812 65.6283 18.9488 64.945 20.2259C64.2617 21.5029 63.938 22.9415 64.0082 24.3881C64.0785 25.8348 64.5402 27.2352 65.344 28.44L94.2 71.728L73.6 99.2C72.9285 100.096 72.4524 101.122 72.2026 102.213C71.9527 103.305 71.9347 104.436 72.1496 105.535C72.3645 106.633 72.8075 107.675 73.4501 108.591C74.0927 109.508 74.9205 110.279 75.88 110.856L104.536 128.048C104.352 128.048 104.176 128 104 128C99.4027 127.933 94.845 128.858 90.6372 130.711C86.4294 132.564 82.6703 135.302 79.6159 138.738C76.5615 142.175 74.2835 146.229 72.9371 150.625C71.5906 155.022 71.2073 159.656 71.8133 164.214C72.4192 168.772 74.0002 173.145 76.4485 177.037C78.8968 180.928 82.155 184.247 86.0012 186.766C89.8475 189.285 94.1914 190.946 98.7372 191.635C103.283 192.324 107.924 192.026 112.344 190.76C113.514 205.761 118.508 220.212 126.851 232.734C135.194 245.256 146.607 255.431 160 262.288V274.456L99.504 297.152C79.7161 304.649 62.669 317.974 50.6161 335.367C38.5631 352.759 32.0718 373.4 32 394.56V488C32 490.122 32.8429 492.157 34.3431 493.657C35.8434 495.157 37.8783 496 40 496H472C477.664 496.003 483.146 494.003 487.477 490.353C491.809 486.704 494.71 481.64 495.667 476.058C496.625 470.476 495.578 464.735 492.71 459.85C489.843 454.966 485.341 451.253 480 449.368V449.368ZM404.184 240L394.584 264H357.416L347.816 240H404.184ZM352 288V280H400V288H352ZM298.128 313.504C289.848 321.67 283.275 331.4 278.789 342.129C274.304 352.858 271.996 364.371 272 376V449.368C267.324 451.029 263.276 454.095 260.412 458.147C257.547 462.199 256.006 467.038 256 472C256.027 474.732 256.524 477.438 257.472 480H222.944L230.656 468.44C231.7 466.874 232.159 464.991 231.952 463.12L217.208 330.4L235.56 342.64C236.874 343.519 238.419 343.992 240 344C240.694 344.001 241.386 343.909 242.056 343.728C243.152 343.437 244.175 342.917 245.055 342.201C245.935 341.485 246.652 340.59 247.16 339.576L266.248 301.392L294.912 312.152C296 312.544 297.056 313.056 298.128 313.504ZM193.16 317.84L197.768 304H202.232L206.84 317.84L200 324.688L193.16 317.84ZM251.2 295.744L236.896 324.32L222.72 314.864L217.52 299.272L233.024 288.928L251.2 295.744ZM312 160C312 164.243 310.314 168.313 307.314 171.314C304.313 174.314 300.243 176 296 176C293.186 175.992 290.425 175.236 288 173.808V146.192C290.425 144.764 293.186 144.008 296 144C300.243 144 304.313 145.686 307.314 148.686C310.314 151.687 312 155.757 312 160V160ZM110.4 76.8C111.394 75.4757 111.952 73.8757 111.998 72.2207C112.043 70.5658 111.575 68.9373 110.656 67.56L86.944 32H248C258.605 32.0127 268.772 36.2311 276.27 43.7298C283.769 51.2285 287.987 61.3952 288 72V108.688L276.688 120H267.776C263.316 120.016 258.941 118.781 255.148 116.437C251.354 114.092 248.293 110.732 246.312 106.736L239.2 92.424C238.667 91.3562 237.902 90.4213 236.96 89.6876C236.019 88.954 234.926 88.4402 233.76 88.184C233.181 88.0607 232.592 87.9991 232 88C230.183 87.9991 228.419 88.617 227 89.752L208.912 104.224C196.134 114.414 180.28 119.975 163.936 120H122.216L91.72 101.704L110.4 76.8ZM88 160C88 155.757 89.6857 151.687 92.6863 148.686C95.6869 145.686 99.7565 144 104 144C106.814 144.008 109.575 144.764 112 146.192V173.808C109.575 175.236 106.814 175.992 104 176C99.7565 176 95.6869 174.314 92.6863 171.314C89.6857 168.313 88 164.243 88 160V160ZM128 184V136H163.936C183.916 135.975 203.296 129.176 218.912 116.712L229.272 108.432L232 113.888C235.302 120.548 240.404 126.15 246.727 130.058C253.051 133.966 260.342 136.025 267.776 136H272V184C272 203.096 264.414 221.409 250.912 234.912C237.409 248.414 219.096 256 200 256C180.904 256 162.591 248.414 149.088 234.912C135.586 221.409 128 203.096 128 184V184ZM200 272C208.119 271.98 216.196 270.833 224 268.592V275.72L205.6 288H194.4L176 275.72V268.592C183.804 270.833 191.881 271.98 200 272V272ZM166.976 288.928L182.48 299.272L177.28 314.864L163.104 324.32L148.8 295.744L166.976 288.928ZM48 394.56C48.0648 376.656 53.5615 359.194 63.7633 344.481C73.9651 329.768 88.3917 318.498 105.136 312.16L133.752 301.416L152.84 339.6C153.348 340.614 154.065 341.509 154.945 342.225C155.825 342.941 156.848 343.461 157.944 343.752C158.615 343.925 159.307 344.009 160 344C161.58 343.997 163.124 343.53 164.44 342.656L182.792 330.416L168.048 463.12C167.841 464.991 168.3 466.874 169.344 468.44L177.056 480H112V360H96V480H48V394.56ZM196.28 480L184.28 461.992L197.44 343.504C199.083 344.165 200.917 344.165 202.56 343.504L215.728 461.992L203.72 480H196.28ZM472 480H280C277.878 480 275.843 479.157 274.343 477.657C272.843 476.157 272 474.122 272 472C272 469.878 272.843 467.843 274.343 466.343C275.843 464.843 277.878 464 280 464C282.122 464 284.157 463.157 285.657 461.657C287.157 460.157 288 458.122 288 456V376C288.021 356.911 295.614 338.61 309.112 325.112C322.61 311.614 340.911 304.021 360 304H392C411.089 304.021 429.39 311.614 442.888 325.112C456.386 338.61 463.979 356.911 464 376V456C464 458.122 464.843 460.157 466.343 461.657C467.843 463.157 469.878 464 472 464C474.122 464 476.157 464.843 477.657 466.343C479.157 467.843 480 469.878 480 472C480 474.122 479.157 476.157 477.657 477.657C476.157 479.157 474.122 480 472 480Z" fill="#265EC2"/>
<path d="M368 368H384C386.122 368 388.157 368.843 389.657 370.343C391.157 371.843 392 373.878 392 376H408C408 369.635 405.471 363.53 400.971 359.029C396.47 354.529 390.365 352 384 352V344H368V352C361.635 352 355.53 354.529 351.029 359.029C346.529 363.53 344 369.635 344 376C344 382.365 346.529 388.47 351.029 392.971C355.53 397.471 361.635 400 368 400H384C386.122 400 388.157 400.843 389.657 402.343C391.157 403.843 392 405.878 392 408C392 410.122 391.157 412.157 389.657 413.657C388.157 415.157 386.122 416 384 416H368C365.878 416 363.843 415.157 362.343 413.657C360.843 412.157 360 410.122 360 408H344C344 414.365 346.529 420.47 351.029 424.971C355.53 429.471 361.635 432 368 432V440H384V432C390.365 432 396.47 429.471 400.971 424.971C405.471 420.47 408 414.365 408 408C408 401.635 405.471 395.53 400.971 391.029C396.47 386.529 390.365 384 384 384H368C365.878 384 363.843 383.157 362.343 381.657C360.843 380.157 360 378.122 360 376C360 373.878 360.843 371.843 362.343 370.343C363.843 368.843 365.878 368 368 368Z" fill="#265EC2"/>
<path d="M424 384H440V400H424V384Z" fill="#265EC2"/>
<path d="M312 384H328V400H312V384Z" fill="#265EC2"/>
</svg>
