<svg width="512" height="512" viewBox="0 0 512 512" fill="none" xmlns="http://www.w3.org/2000/svg">
<path d="M488 216V296L442.48 301.68C437.867 320.697 430.338 338.886 420.16 355.6L448.32 391.76L391.76 448.32L355.6 420.16C339.573 429.912 322.182 437.219 304 441.84V432H312C316.234 431.969 320.285 430.273 323.279 427.279C326.273 424.285 327.969 420.234 328 416C327.987 411.76 326.298 407.698 323.3 404.7C320.302 401.702 316.24 400.013 312 400V389.6C311.927 384.426 313.148 379.317 315.551 374.734C317.954 370.152 321.463 366.242 325.76 363.36C348.89 348.326 366.544 326.221 376.092 300.339C385.64 274.457 386.57 246.184 378.745 219.73C370.92 193.276 354.758 170.059 332.666 153.536C310.574 137.013 283.736 128.07 256.149 128.038C228.563 128.007 201.704 136.889 179.574 153.361C157.445 169.833 141.23 193.013 133.344 219.449C125.458 245.885 126.324 274.161 135.812 300.064C145.301 325.968 162.904 348.113 186 363.2C190.378 366.17 193.949 370.181 196.393 374.873C198.836 379.565 200.076 384.79 200 390.08V400C195.766 400.031 191.715 401.727 188.721 404.721C185.727 407.715 184.031 411.766 184 416C184.013 420.24 185.702 424.302 188.7 427.3C191.698 430.298 195.76 431.987 200 432H208V441.84C189.818 437.219 172.427 429.912 156.4 420.16L120.24 448.32L63.68 391.76L91.84 355.6C81.662 338.886 74.1328 320.697 69.52 301.68L24 296V216L69.52 210.32C74.1328 191.303 81.662 173.114 91.84 156.4L63.68 120.24L120.24 63.68L156.4 91.84C173.114 81.662 191.303 74.1328 210.32 69.52L216 24H296L301.68 69.52C320.697 74.1328 338.886 81.662 355.6 91.84L391.76 63.68L448.32 120.24L420.16 156.4C430.338 173.114 437.867 191.303 442.48 210.32L488 216Z" fill="#B0D1F9"/>
<path d="M312 400C316.24 400.013 320.302 401.702 323.3 404.7C326.298 407.698 327.987 411.76 328 416C327.969 420.234 326.273 424.285 323.279 427.279C320.285 430.273 316.234 431.969 312 432H200C195.76 431.987 191.698 430.298 188.7 427.3C185.702 424.302 184.013 420.24 184 416C184.031 411.766 185.727 407.715 188.721 404.721C191.715 401.727 195.766 400.031 200 400H312Z" fill="#B0D1F9"/>
<path d="M208 432V456C208.032 464.477 211.413 472.598 217.408 478.592C223.402 484.587 231.523 487.968 240 488H272C280.477 487.968 288.598 484.587 294.592 478.592C300.587 472.598 303.968 464.477 304 456V432H208Z" fill="#B0D1F9"/>
<path d="M248 232H264C266.122 232 268.157 232.843 269.657 234.343C271.157 235.843 272 237.878 272 240H288C288 233.635 285.471 227.53 280.971 223.029C276.47 218.529 270.365 216 264 216V208H248V216C241.635 216 235.53 218.529 231.029 223.029C226.529 227.53 224 233.635 224 240C224 246.365 226.529 252.47 231.029 256.971C235.53 261.471 241.635 264 248 264H264C266.122 264 268.157 264.843 269.657 266.343C271.157 267.843 272 269.878 272 272C272 274.122 271.157 276.157 269.657 277.657C268.157 279.157 266.122 280 264 280H248C245.878 280 243.843 279.157 242.343 277.657C240.843 276.157 240 274.122 240 272H224C224 278.365 226.529 284.47 231.029 288.971C235.53 293.471 241.635 296 248 296V304H264V296C270.365 296 276.47 293.471 280.971 288.971C285.471 284.47 288 278.365 288 272C288 265.635 285.471 259.53 280.971 255.029C276.47 250.529 270.365 248 264 248H248C245.878 248 243.843 247.157 242.343 245.657C240.843 244.157 240 242.122 240 240C240 237.878 240.843 235.843 242.343 234.343C243.843 232.843 245.878 232 248 232Z" fill="#265EC2"/>
<path d="M488.992 208.064L448.864 203.056C444.484 186.968 438.086 171.499 429.824 157.016L454.624 125.152C455.821 123.613 456.415 121.69 456.294 119.744C456.174 117.798 455.346 115.963 453.968 114.584L397.408 58.024C396.029 56.6456 394.194 55.8183 392.248 55.6975C390.302 55.5767 388.379 56.1707 386.84 57.368L354.976 82.168C340.493 73.9056 325.024 67.5082 308.936 63.128L303.928 23C303.685 21.0683 302.745 19.2917 301.286 18.0031C299.826 16.7144 297.947 16.0023 296 16H216C214.05 16.0006 212.168 16.713 210.707 18.0034C209.246 19.2939 208.306 21.0735 208.064 23.008L203.056 63.136C186.968 67.5162 171.499 73.9136 157.016 82.176L125.152 57.376C123.613 56.1787 121.69 55.5847 119.744 55.7055C117.798 55.8263 115.963 56.6536 114.584 58.032L58.024 114.592C56.6456 115.971 55.8183 117.806 55.6975 119.752C55.5767 121.698 56.1707 123.621 57.368 125.16L82.168 157.024C73.9056 171.507 67.5082 186.976 63.128 203.064L23 208.072C21.0683 208.315 19.2917 209.255 18.0031 210.714C16.7144 212.174 16.0023 214.053 16 216V296C16.0006 297.95 16.713 299.832 18.0034 301.293C19.2939 302.754 21.0735 303.694 23.008 303.936L63.136 308.944C67.5162 325.032 73.9136 340.501 82.176 354.984L57.376 386.848C56.1787 388.387 55.5847 390.31 55.7055 392.256C55.8263 394.202 56.6536 396.037 58.032 397.416L114.592 453.976C115.971 455.354 117.806 456.182 119.752 456.303C121.698 456.423 123.621 455.829 125.16 454.632L157.024 429.832C170.583 437.519 185.01 443.562 200 447.832V456C200.032 466.599 204.256 476.755 211.751 484.249C219.245 491.744 229.401 495.968 240 496H272C282.598 495.966 292.753 491.741 300.247 484.247C307.741 476.753 311.966 466.598 312 456V447.832C326.994 443.558 341.424 437.51 354.984 429.816L386.848 454.616C388.387 455.813 390.31 456.407 392.256 456.286C394.202 456.166 396.037 455.338 397.416 453.96L453.976 397.4C455.354 396.021 456.182 394.186 456.303 392.24C456.423 390.294 455.829 388.371 454.632 386.832L429.832 354.968C438.094 340.485 444.492 325.016 448.872 308.928L489 303.92C490.93 303.677 492.706 302.739 493.994 301.281C495.283 299.823 495.996 297.946 496 296V216C495.999 214.05 495.287 212.168 493.997 210.707C492.706 209.246 490.927 208.306 488.992 208.064V208.064ZM304 389.6V392H208V390.064C208.098 383.44 206.54 376.897 203.466 371.029C200.392 365.161 195.901 360.155 190.4 356.464C168.75 342.318 152.249 321.555 143.356 297.27C134.463 272.985 133.654 246.476 141.049 221.694C148.444 196.911 163.648 175.181 184.395 159.741C205.143 144.3 230.323 135.976 256.185 136.007C282.048 136.039 307.208 144.425 327.917 159.916C348.626 175.407 363.777 197.174 371.112 221.975C378.446 246.775 377.573 273.282 368.62 297.545C359.668 321.808 343.117 342.531 321.432 356.624C316 360.224 311.559 365.129 308.513 370.89C305.468 376.651 303.916 383.084 304 389.6V389.6ZM194.448 410.304C195.17 409.565 196.034 408.98 196.988 408.584C197.943 408.188 198.967 407.99 200 408H312C314.122 408 316.157 408.843 317.657 410.343C319.157 411.843 320 413.878 320 416C320.003 417.066 319.788 418.122 319.367 419.102C318.946 420.082 318.328 420.965 317.552 421.696C316.83 422.435 315.966 423.02 315.012 423.416C314.057 423.812 313.033 424.01 312 424H200C197.878 424 195.843 423.157 194.343 421.657C192.843 420.157 192 418.122 192 416C191.997 414.934 192.212 413.878 192.633 412.898C193.054 411.918 193.672 411.035 194.448 410.304ZM291.2 470.4C288.974 473.39 286.077 475.817 282.742 477.484C279.407 479.151 275.728 480.013 272 480H240C233.644 479.971 227.556 477.433 223.062 472.938C218.567 468.444 216.029 462.356 216 456V440H296V456C296.008 461.194 294.323 466.249 291.2 470.4ZM480 288.936L441.488 293.736C439.881 293.937 438.372 294.622 437.162 295.699C435.952 296.776 435.098 298.195 434.712 299.768C430.294 317.986 423.083 335.411 413.336 351.424C412.489 352.81 412.085 354.422 412.176 356.044C412.268 357.666 412.851 359.221 413.848 360.504L437.664 391.096L391.104 437.656L360.512 413.84C359.229 412.843 357.674 412.26 356.052 412.168C354.43 412.077 352.818 412.481 351.432 413.328C346.16 416.497 340.726 419.389 335.152 421.992C335.689 420.039 335.974 418.025 336 416C335.979 411.054 334.431 406.235 331.567 402.202C328.703 398.17 324.663 395.121 320 393.472V389.6C319.946 385.755 320.841 381.956 322.607 378.54C324.372 375.124 326.953 372.196 330.12 370.016C354.69 354.036 373.44 330.546 383.577 303.045C393.714 275.544 394.696 245.504 386.375 217.4C378.055 189.296 360.878 164.632 337.403 147.083C313.928 129.533 285.412 120.036 256.102 120.008C226.793 119.98 198.258 129.421 174.749 146.925C151.24 164.429 134.016 189.06 125.641 217.147C117.266 245.235 118.189 275.277 128.273 302.797C138.356 330.318 157.061 353.844 181.6 369.872C184.856 372.127 187.508 375.148 189.322 378.669C191.135 382.19 192.055 386.104 192 390.064V393.448C188.656 394.584 185.621 396.482 183.136 398.992C180.107 401.903 177.924 405.58 176.818 409.633C175.713 413.686 175.726 417.962 176.856 422.008C171.282 419.398 165.845 416.503 160.568 413.336C159.182 412.489 157.57 412.085 155.948 412.176C154.326 412.268 152.771 412.851 151.488 413.848L120.896 437.664L74.336 391.104L98.152 360.512C99.1492 359.229 99.7323 357.674 99.8237 356.052C99.9152 354.43 99.5107 352.818 98.664 351.432C88.9167 335.419 81.706 317.994 77.288 299.776C76.9021 298.203 76.0476 296.784 74.8377 295.707C73.6277 294.63 72.1193 293.945 70.512 293.744L32 288.936V223.064L70.512 218.264C72.1193 218.063 73.6277 217.378 74.8377 216.301C76.0476 215.224 76.9021 213.805 77.288 212.232C81.7075 194.014 88.918 176.59 98.664 160.576C99.5107 159.19 99.9152 157.578 99.8237 155.956C99.7323 154.334 99.1492 152.779 98.152 151.496L74.336 120.896L120.896 74.336L151.488 98.152C152.771 99.1492 154.326 99.7323 155.948 99.8237C157.57 99.9152 159.182 99.5107 160.568 98.664C176.582 88.918 194.006 81.7075 212.224 77.288C213.797 76.9021 215.216 76.0476 216.293 74.8377C217.37 73.6277 218.055 72.1193 218.256 70.512L223.064 32H288.936L293.736 70.512C293.937 72.1193 294.622 73.6277 295.699 74.8377C296.776 76.0476 298.195 76.9021 299.768 77.288C317.986 81.7075 335.41 88.918 351.424 98.664C352.81 99.5107 354.422 99.9152 356.044 99.8237C357.666 99.7323 359.221 99.1492 360.504 98.152L391.096 74.336L437.656 120.896L413.84 151.488C412.843 152.771 412.26 154.326 412.168 155.948C412.077 157.57 412.481 159.182 413.328 160.568C423.074 176.582 430.285 194.006 434.704 212.224C435.09 213.797 435.944 215.216 437.154 216.293C438.364 217.37 439.873 218.055 441.48 218.256L479.992 223.056L480 288.936Z" fill="#265EC2"/>
<path d="M248 80H264V96H248V80Z" fill="#265EC2"/>
<path d="M125.868 137.208L137.182 125.894L148.496 137.208L137.182 148.522L125.868 137.208Z" fill="#265EC2"/>
<path d="M80 248H96V264H80V248Z" fill="#265EC2"/>
<path d="M125.84 374.764L137.154 363.45L148.467 374.764L137.154 386.078L125.84 374.764Z" fill="#265EC2"/>
<path d="M363.396 374.792L374.71 363.478L386.023 374.792L374.71 386.106L363.396 374.792Z" fill="#265EC2"/>
<path d="M416 248H432V264H416V248Z" fill="#265EC2"/>
<path d="M363.424 137.236L374.738 125.922L386.051 137.236L374.738 148.55L363.424 137.236Z" fill="#265EC2"/>
<path d="M248 160H264V176H248V160Z" fill="#265EC2"/>
<path d="M201.064 176.868L214.92 168.868L222.92 182.724L209.064 190.724L201.064 176.868Z" fill="#265EC2"/>
<path d="M168.856 214.924L176.856 201.068L190.712 209.068L182.712 222.924L168.856 214.924Z" fill="#265EC2"/>
<path d="M160 248H176V264H160V248Z" fill="#265EC2"/>
<path d="M168.876 297.032L182.732 289.032L190.732 302.888L176.876 310.888L168.876 297.032Z" fill="#265EC2"/>
<path d="M201.068 335.176L209.068 321.32L222.924 329.32L214.924 343.176L201.068 335.176Z" fill="#265EC2"/>
<path d="M248 336H264V352H248V336Z" fill="#265EC2"/>
<path d="M289.056 329.284L302.912 321.284L310.912 335.14L297.056 343.14L289.056 329.284Z" fill="#265EC2"/>
<path d="M321.272 302.924L329.272 289.068L343.128 297.068L335.128 310.924L321.272 302.924Z" fill="#265EC2"/>
<path d="M336 248H352V264H336V248Z" fill="#265EC2"/>
<path d="M321.276 209.032L335.132 201.032L343.132 214.888L329.276 222.888L321.276 209.032Z" fill="#265EC2"/>
<path d="M289.084 182.752L297.084 168.896L310.94 176.896L302.94 190.752L289.084 182.752Z" fill="#265EC2"/>
</svg>
