<svg width="512" height="512" viewBox="0 0 512 512" fill="none" xmlns="http://www.w3.org/2000/svg">
<path d="M488 328V360C488 368.487 484.629 376.626 478.627 382.627C472.626 388.629 464.487 392 456 392H120C111.513 392 103.374 388.629 97.3726 382.627C91.3714 376.626 88 368.487 88 360H184C192.479 359.975 200.604 356.595 206.599 350.599C212.595 344.604 215.975 336.479 216 328H488Z" fill="#B0D1F9"/>
<path d="M440 184H312C303.163 184 296 191.163 296 200V232C296 240.837 303.163 248 312 248H440C448.837 248 456 240.837 456 232V200C456 191.163 448.837 184 440 184Z" fill="#B0D1F9"/>
<path d="M379.28 460.72C380.784 462.187 381.977 463.942 382.788 465.88C383.599 467.818 384.011 469.899 384 472C383.987 476.24 382.298 480.302 379.3 483.3C376.302 486.298 372.24 487.987 368 488H208C203.766 487.969 199.715 486.273 196.721 483.279C193.727 480.285 192.031 476.234 192 472C192.013 467.76 193.702 463.698 196.7 460.7C199.698 457.702 203.76 456.013 208 456H368C370.101 455.989 372.182 456.401 374.12 457.212C376.058 458.023 377.813 459.216 379.28 460.72V460.72Z" fill="#B0D1F9"/>
<path d="M344 392L352 456H224L232 392H344Z" fill="#B0D1F9"/>
<path d="M216 148.16C208.302 145.389 200.181 143.982 192 144C172.904 144 154.591 151.586 141.088 165.088C127.586 178.591 120 196.904 120 216C120 235.096 127.586 253.409 141.088 266.912C154.591 280.414 172.904 288 192 288C200.181 288.018 208.302 286.611 216 283.84C230.034 278.885 242.186 269.7 250.781 257.55C259.377 245.4 263.993 230.883 263.993 216C263.993 201.117 259.377 186.6 250.781 174.45C242.186 162.3 230.034 153.115 216 148.16V148.16Z" fill="#B0D1F9"/>
<path d="M160 24V40C159.987 44.2396 158.298 48.3019 155.3 51.2997C152.302 54.2976 148.24 55.9873 144 56H96C91.7604 55.9873 87.6981 54.2976 84.7003 51.2997C81.7024 48.3019 80.0127 44.2396 80 40V24H160Z" fill="#B0D1F9"/>
<path d="M456 96H224V56C223.987 45.3952 219.769 35.2285 212.27 27.7298C204.772 20.2311 194.605 16.0127 184 16H56C45.3952 16.0127 35.2285 20.2311 27.7298 27.7298C20.2311 35.2285 16.0127 45.3952 16 56V328C16.0127 338.605 20.2311 348.772 27.7298 356.27C35.2285 363.769 45.3952 367.987 56 368H80.8C82.6568 377.029 87.5694 385.141 94.71 390.97C101.851 396.799 110.782 399.988 120 400H222.936L216.936 448H208C201.635 448 195.53 450.529 191.029 455.029C186.529 459.53 184 465.635 184 472C184 478.365 186.529 484.47 191.029 488.971C195.53 493.471 201.635 496 208 496H368C374.365 496 380.47 493.471 384.971 488.971C389.471 484.47 392 478.365 392 472C392 465.635 389.471 459.53 384.971 455.029C380.47 450.529 374.365 448 368 448H359.064L353.064 400H456C466.605 399.987 476.772 395.769 484.27 388.27C491.769 380.772 495.987 370.605 496 360V136C495.987 125.395 491.769 115.228 484.27 107.73C476.772 100.231 466.605 96.0127 456 96V96ZM456 112C462.365 112 468.47 114.529 472.971 119.029C477.471 123.53 480 129.635 480 136V320H224V289.272C238.264 283.056 250.403 272.812 258.928 259.796C267.454 246.78 271.995 231.559 271.995 216C271.995 200.441 267.454 185.22 258.928 172.204C250.403 159.188 238.264 148.944 224 142.728V112H456ZM256 216C256 228.658 252.246 241.032 245.214 251.556C238.182 262.081 228.186 270.284 216.492 275.128C204.797 279.972 191.929 281.24 179.514 278.77C167.099 276.301 155.696 270.205 146.745 261.255C137.795 252.304 131.699 240.901 129.23 228.486C126.76 216.071 128.028 203.203 132.872 191.508C137.716 179.814 145.919 169.818 156.444 162.786C166.968 155.754 179.342 152 192 152C208.968 152.019 225.236 158.768 237.234 170.766C249.232 182.764 255.981 199.032 256 216V216ZM88 32H152V40C152 42.1217 151.157 44.1566 149.657 45.6569C148.157 47.1571 146.122 48 144 48H96C93.8783 48 91.8434 47.1571 90.3431 45.6569C88.8429 44.1566 88 42.1217 88 40V32ZM32 328V56C32 49.6348 34.5286 43.5303 39.0294 39.0294C43.5303 34.5286 49.6348 32 56 32H72V40C72 46.3652 74.5286 52.4697 79.0294 56.9706C83.5303 61.4714 89.6348 64 96 64H144C150.365 64 156.47 61.4714 160.971 56.9706C165.471 52.4697 168 46.3652 168 40V32H184C190.365 32 196.47 34.5286 200.971 39.0294C205.471 43.5303 208 49.6348 208 56V137.6C196.381 135.241 184.383 135.493 172.874 138.34C161.365 141.186 150.632 146.555 141.452 154.058C132.272 161.561 124.875 171.011 119.795 181.724C114.715 192.436 112.08 204.144 112.08 216C112.08 227.856 114.715 239.564 119.795 250.276C124.875 260.989 132.272 270.439 141.452 277.942C150.632 285.445 161.365 290.814 172.874 293.66C184.383 296.507 196.381 296.759 208 294.4V328C208 334.365 205.471 340.47 200.971 344.971C196.47 349.471 190.365 352 184 352H56C49.6348 352 43.5303 349.471 39.0294 344.971C34.5286 340.47 32 334.365 32 328V328ZM376 472C376 474.122 375.157 476.157 373.657 477.657C372.157 479.157 370.122 480 368 480H208C205.878 480 203.843 479.157 202.343 477.657C200.843 476.157 200 474.122 200 472C200 469.878 200.843 467.843 202.343 466.343C203.843 464.843 205.878 464 208 464H368C370.122 464 372.157 464.843 373.657 466.343C375.157 467.843 376 469.878 376 472ZM342.936 448H233.064L239.064 400H336.936L342.936 448ZM456 384H120C115.054 383.979 110.235 382.431 106.202 379.567C102.17 376.703 99.1207 372.663 97.472 368H184C193.218 367.988 202.149 364.799 209.29 358.97C216.431 353.141 221.343 345.029 223.2 336H480V360C480 366.365 477.471 372.47 472.971 376.971C468.47 381.471 462.365 384 456 384Z" fill="#265EC2"/>
<path d="M432 352H448V368H432V352Z" fill="#265EC2"/>
<path d="M384 208H400V224H384V208Z" fill="#265EC2"/>
<path d="M416 208H432V224H416V208Z" fill="#265EC2"/>
<path d="M352 208H368V224H352V208Z" fill="#265EC2"/>
<path d="M320 208H336V224H320V208Z" fill="#265EC2"/>
<path d="M312 256H440C446.365 256 452.47 253.471 456.971 248.971C461.471 244.47 464 238.365 464 232V200C464 193.635 461.471 187.53 456.971 183.029C452.47 178.529 446.365 176 440 176H312C305.635 176 299.53 178.529 295.029 183.029C290.529 187.53 288 193.635 288 200V232C288 238.365 290.529 244.47 295.029 248.971C299.53 253.471 305.635 256 312 256ZM304 200C304 197.878 304.843 195.843 306.343 194.343C307.843 192.843 309.878 192 312 192H440C442.122 192 444.157 192.843 445.657 194.343C447.157 195.843 448 197.878 448 200V232C448 234.122 447.157 236.157 445.657 237.657C444.157 239.157 442.122 240 440 240H312C309.878 240 307.843 239.157 306.343 237.657C304.843 236.157 304 234.122 304 232V200Z" fill="#265EC2"/>
<path d="M184 168V176C177.635 176 171.53 178.529 167.029 183.029C162.529 187.53 160 193.635 160 200C160 206.365 162.529 212.47 167.029 216.971C171.53 221.471 177.635 224 184 224H200C202.122 224 204.157 224.843 205.657 226.343C207.157 227.843 208 229.878 208 232C208 234.122 207.157 236.157 205.657 237.657C204.157 239.157 202.122 240 200 240H184C181.878 240 179.843 239.157 178.343 237.657C176.843 236.157 176 234.122 176 232H160C160 238.365 162.529 244.47 167.029 248.971C171.53 253.471 177.635 256 184 256V264H200V256C206.365 256 212.47 253.471 216.971 248.971C221.471 244.47 224 238.365 224 232C224 225.635 221.471 219.53 216.971 215.029C212.47 210.529 206.365 208 200 208H184C181.878 208 179.843 207.157 178.343 205.657C176.843 204.157 176 202.122 176 200C176 197.878 176.843 195.843 178.343 194.343C179.843 192.843 181.878 192 184 192H200C202.122 192 204.157 192.843 205.657 194.343C207.157 195.843 208 197.878 208 200H224C224 193.635 221.471 187.53 216.971 183.029C212.47 178.529 206.365 176 200 176V168H184Z" fill="#265EC2"/>
</svg>
