<svg width="350" height="350" viewBox="0 0 350 350" fill="none" xmlns="http://www.w3.org/2000/svg">
<circle cx="175" cy="175" r="175" fill="#F4F6FE"/>
<path d="M174.5 285C220.067 285 257 257.5 257 209.375C257 188.75 250.125 154.375 222.625 126.875C226.062 147.5 205.438 154.375 205.438 154.375C215.75 120 188.25 71.875 147 65C151.909 92.5 153.875 120 119.5 147.5C102.312 161.25 92 185.024 92 209.375C92 257.5 128.933 285 174.5 285ZM174.5 271.25C151.716 271.25 133.25 257.5 133.25 233.438C133.25 223.125 136.688 205.938 150.438 192.188C148.719 202.5 160.75 209.375 160.75 209.375C155.594 192.188 167.625 164.688 188.25 161.25C185.789 175 184.812 188.75 202 202.5C210.594 209.375 215.75 221.255 215.75 233.438C215.75 257.5 197.284 271.25 174.5 271.25Z" fill="#265EC2"/>
</svg>
