<svg width="350" height="350" viewBox="0 0 350 350" fill="none" xmlns="http://www.w3.org/2000/svg">
<circle cx="175" cy="175" r="175" fill="#F4F6FE"/>
<path d="M139.375 139.376C149.983 128.768 149.983 111.564 139.375 100.956C128.767 90.348 111.563 90.348 100.956 100.956C90.3481 111.564 90.3481 128.768 100.956 139.376C111.568 149.988 128.767 149.988 139.375 139.376ZM248.041 209.624C237.433 199.016 220.229 199.016 209.622 209.624C199.014 220.232 199.014 237.436 209.622 248.044C220.229 258.652 237.433 258.652 248.041 248.044C258.653 237.436 258.653 220.236 248.041 209.624ZM247.218 111.385L237.616 101.784C232.31 96.4776 223.71 96.4776 218.408 101.784L101.783 218.411C96.4775 223.717 96.4775 232.317 101.783 237.619L111.385 247.221C116.691 252.527 125.291 252.527 130.593 247.221L247.218 130.593C252.524 125.292 252.524 116.692 247.218 111.385Z" fill="#265EC2"/>
</svg>
