<svg width="512" height="512" viewBox="0 0 512 512" fill="none" xmlns="http://www.w3.org/2000/svg">
<path d="M368 249.2C373.295 248.394 378.644 247.993 384 248C410.818 248.069 436.566 258.52 455.845 277.161C475.124 295.803 486.434 321.186 487.404 347.986C488.373 374.786 478.926 400.92 461.044 420.906C443.163 440.891 418.236 453.176 391.494 455.181C364.751 457.187 338.271 448.758 317.609 431.663C296.946 414.569 283.707 390.136 280.668 363.491C277.629 336.847 285.026 310.06 301.309 288.752C317.591 267.443 341.493 253.268 368 249.2V249.2ZM456 352C456 337.76 451.777 323.839 443.866 311.999C435.955 300.159 424.71 290.93 411.553 285.481C398.397 280.031 383.92 278.605 369.954 281.384C355.987 284.162 343.158 291.019 333.088 301.088C323.019 311.158 316.162 323.987 313.384 337.954C310.605 351.92 312.031 366.397 317.481 379.553C322.93 392.71 332.159 403.954 343.999 411.866C355.839 419.777 369.76 424 384 424C403.096 424 421.409 416.414 434.912 402.912C448.414 389.409 456 371.096 456 352V352Z" fill="#B0D1F9"/>
<path d="M367.36 454.64C365.833 463.971 361.034 472.453 353.821 478.566C346.609 484.679 337.455 488.023 328 488H104C93.3913 488 83.2172 483.786 75.7157 476.284C68.2143 468.783 64 458.609 64 448V392H288C294.808 408.329 305.669 422.651 319.556 433.612C333.443 444.574 349.896 451.811 367.36 454.64ZM248 440C247.969 435.766 246.273 431.715 243.279 428.721C240.285 425.727 236.234 424.031 232 424H200C195.76 424.013 191.698 425.702 188.7 428.7C185.702 431.698 184.013 435.76 184 440C184.031 444.234 185.727 448.285 188.721 451.279C191.715 454.273 195.766 455.969 200 456H232C236.24 455.987 240.302 454.298 243.3 451.3C246.298 448.302 247.987 444.24 248 440V440Z" fill="#B0D1F9"/>
<path d="M168 120V152C160.088 152.009 152.357 154.361 145.78 158.759C139.204 163.157 134.078 169.404 131.049 176.713C128.019 184.021 127.222 192.063 128.758 199.824C130.294 207.585 134.095 214.717 139.68 220.32L117.12 242.88C107.04 232.82 100.172 219.995 97.3855 206.029C94.5994 192.062 96.0204 177.584 101.469 164.426C106.917 151.268 116.147 140.023 127.991 132.114C139.834 124.206 153.758 119.99 168 120V120Z" fill="#B0D1F9"/>
<path d="M208 192H240C240.011 206.241 235.795 220.165 227.886 232.009C219.978 243.853 208.732 253.083 195.574 258.531C182.416 263.979 167.938 265.4 153.972 262.614C140.005 259.828 127.18 252.96 117.12 242.88L139.68 220.32C145.283 225.905 152.415 229.705 160.176 231.242C167.937 232.778 175.979 231.981 183.288 228.951C190.596 225.922 196.843 220.795 201.241 214.219C205.64 207.643 207.991 199.911 208 192V192Z" fill="#B0D1F9"/>
<path d="M240 192H208C208 181.391 203.786 171.217 196.284 163.716C188.783 156.214 178.609 152 168 152V120C187.096 120 205.409 127.586 218.912 141.088C232.414 154.591 240 172.904 240 192V192Z" fill="#B0D1F9"/>
<path d="M368 64V88H64V64C64 53.3913 68.2143 43.2172 75.7157 35.7157C83.2172 28.2143 93.3913 24 104 24H328C338.609 24 348.783 28.2143 356.284 35.7157C363.786 43.2172 368 53.3913 368 64V64Z" fill="#B0D1F9"/>
<path d="M232 416H200C193.635 416 187.53 418.529 183.029 423.029C178.529 427.53 176 433.635 176 440C176 446.365 178.529 452.47 183.029 456.971C187.53 461.471 193.635 464 200 464H232C238.365 464 244.47 461.471 248.971 456.971C253.471 452.47 256 446.365 256 440C256 433.635 253.471 427.53 248.971 423.029C244.47 418.529 238.365 416 232 416ZM232 448H200C197.878 448 195.843 447.157 194.343 445.657C192.843 444.157 192 442.122 192 440C192 437.878 192.843 435.843 194.343 434.343C195.843 432.843 197.878 432 200 432H232C234.122 432 236.157 432.843 237.657 434.343C239.157 435.843 240 437.878 240 440C240 442.122 239.157 444.157 237.657 445.657C236.157 447.157 234.122 448 232 448Z" fill="#265EC2"/>
<path d="M160 48H176V64H160V48Z" fill="#265EC2"/>
<path d="M192 48H240V64H192V48Z" fill="#265EC2"/>
<path d="M376 328H392C394.122 328 396.157 328.843 397.657 330.343C399.157 331.843 400 333.878 400 336H416C416 329.635 413.471 323.53 408.971 319.029C404.47 314.529 398.365 312 392 312V304H376V312C369.635 312 363.53 314.529 359.029 319.029C354.529 323.53 352 329.635 352 336C352 342.365 354.529 348.47 359.029 352.971C363.53 357.471 369.635 360 376 360H392C394.122 360 396.157 360.843 397.657 362.343C399.157 363.843 400 365.878 400 368C400 370.122 399.157 372.157 397.657 373.657C396.157 375.157 394.122 376 392 376H376C373.878 376 371.843 375.157 370.343 373.657C368.843 372.157 368 370.122 368 368H352C352 374.365 354.529 380.47 359.029 384.971C363.53 389.471 369.635 392 376 392V400H392V392C398.365 392 404.47 389.471 408.971 384.971C413.471 380.47 416 374.365 416 368C416 361.635 413.471 355.53 408.971 351.029C404.47 346.529 398.365 344 392 344H376C373.878 344 371.843 343.157 370.343 341.657C368.843 340.157 368 338.122 368 336C368 333.878 368.843 331.843 370.343 330.343C371.843 328.843 373.878 328 376 328Z" fill="#265EC2"/>
<path d="M384 272C368.178 272 352.71 276.692 339.554 285.482C326.398 294.273 316.145 306.767 310.09 321.385C304.035 336.003 302.45 352.089 305.537 367.607C308.624 383.126 316.243 397.38 327.432 408.569C338.62 419.757 352.874 427.376 368.393 430.463C383.911 433.55 399.997 431.965 414.615 425.91C429.233 419.855 441.727 409.602 450.518 396.446C459.308 383.29 464 367.823 464 352C463.977 330.79 455.541 310.455 440.543 295.457C425.545 280.459 405.21 272.023 384 272ZM384 416C371.342 416 358.968 412.246 348.444 405.214C337.919 398.182 329.716 388.186 324.872 376.492C320.028 364.797 318.76 351.929 321.23 339.514C323.699 327.099 329.795 315.696 338.745 306.745C347.696 297.795 359.099 291.699 371.514 289.23C383.929 286.76 396.797 288.028 408.492 292.872C420.186 297.716 430.182 305.919 437.214 316.444C444.247 326.968 448 339.342 448 352C447.981 368.968 441.232 385.236 429.234 397.234C417.236 409.232 400.968 415.981 384 416V416Z" fill="#265EC2"/>
<path d="M384 240C381.28 240 378.64 240.24 376 240.4V64C376 51.2696 370.943 39.0606 361.941 30.0589C352.939 21.0571 340.73 16 328 16H104C91.2696 16 79.0606 21.0571 70.0589 30.0589C61.0571 39.0606 56 51.2696 56 64V448C56 460.73 61.0571 472.939 70.0589 481.941C79.0606 490.943 91.2696 496 104 496H328C338.028 496.049 347.815 492.927 355.962 487.079C364.109 481.231 370.198 472.957 373.36 463.44C376.88 463.76 380.4 464 384 464C413.704 464 442.192 452.2 463.196 431.196C484.2 410.192 496 381.704 496 352C496 322.296 484.2 293.808 463.196 272.804C442.192 251.8 413.704 240 384 240V240ZM72 64C72 55.5131 75.3714 47.3737 81.3726 41.3726C87.3737 35.3714 95.5131 32 104 32H328C336.487 32 344.626 35.3714 350.627 41.3726C356.629 47.3737 360 55.5131 360 64V80H72V64ZM72 96H360V242.64C344.946 245.917 330.732 252.271 318.251 261.302C305.769 270.333 295.289 281.847 287.469 295.121C279.649 308.395 274.657 323.143 272.808 338.437C270.958 353.732 272.29 369.244 276.72 384H72V96ZM328 480H104C95.5131 480 87.3737 476.629 81.3726 470.627C75.3714 464.626 72 456.487 72 448V400H282.96C290.107 414.964 300.477 428.162 313.327 438.646C326.176 449.13 341.186 456.641 357.28 460.64C354.853 466.395 350.778 471.304 345.568 474.749C340.358 478.193 334.246 480.021 328 480V480ZM384 448C365.013 448 346.452 442.37 330.665 431.821C314.878 421.272 302.574 406.279 295.308 388.738C288.042 371.196 286.14 351.894 289.845 333.271C293.549 314.649 302.692 297.544 316.118 284.118C329.544 270.692 346.649 261.549 365.271 257.845C383.894 254.14 403.196 256.042 420.738 263.308C438.279 270.574 453.272 282.878 463.821 298.665C474.37 314.452 480 333.013 480 352C479.979 377.454 469.858 401.86 451.859 419.859C433.86 437.858 409.454 447.979 384 448V448Z" fill="#265EC2"/>
<path d="M168 272C183.823 272 199.29 267.308 212.446 258.518C225.602 249.727 235.855 237.233 241.91 222.615C247.965 207.997 249.55 191.911 246.463 176.393C243.376 160.874 235.757 146.62 224.569 135.431C213.38 124.243 199.126 116.624 183.607 113.537C168.089 110.45 152.003 112.035 137.385 118.09C122.767 124.145 110.273 134.398 101.482 147.554C92.6919 160.71 88 176.178 88 192C88.0233 213.21 96.4593 233.545 111.457 248.543C126.455 263.541 146.79 271.977 168 272V272ZM168 256C153.792 256.005 139.991 251.251 128.8 242.496L140.208 231.08C146.82 235.809 154.527 238.776 162.603 239.703C170.679 240.629 178.858 239.483 186.369 236.374C193.88 233.264 200.475 228.293 205.533 221.929C210.591 215.566 213.946 208.019 215.28 200H231.448C229.487 215.452 221.965 229.661 210.287 239.968C198.609 250.275 183.576 255.974 168 256ZM168 160C174.329 160 180.516 161.877 185.778 165.393C191.041 168.909 195.142 173.907 197.564 179.754C199.986 185.601 200.62 192.036 199.385 198.243C198.15 204.45 195.103 210.152 190.627 214.627C186.152 219.103 180.45 222.15 174.243 223.385C168.035 224.62 161.601 223.986 155.754 221.564C149.907 219.142 144.909 215.041 141.393 209.778C137.877 204.516 136 198.329 136 192C136 183.513 139.371 175.374 145.373 169.373C151.374 163.371 159.513 160 168 160V160ZM231.448 184H215.28C213.604 174.192 208.925 165.146 201.889 158.111C194.854 151.075 185.808 146.396 176 144.72V128.552C190.079 130.347 203.163 136.766 213.198 146.802C223.234 156.837 229.653 169.921 231.448 184V184ZM160 128.552V144.72C151.985 146.056 144.442 149.411 138.082 154.467C131.722 159.524 126.753 166.116 123.644 173.623C120.535 181.131 119.388 189.306 120.311 197.378C121.234 205.451 124.197 213.156 128.92 219.768L117.504 231.2C110.555 222.296 106.092 211.708 104.571 200.517C103.05 189.325 104.524 177.93 108.845 167.495C113.165 157.059 120.176 147.956 129.163 141.115C138.15 134.273 148.791 129.938 160 128.552V128.552Z" fill="#265EC2"/>
<path d="M248 112H280V128H248V112Z" fill="#265EC2"/>
<path d="M248 144H280V160H248V144Z" fill="#265EC2"/>
<path d="M248 272H280V288H248V272Z" fill="#265EC2"/>
<path d="M248 240H264V256H248V240Z" fill="#265EC2"/>
<path d="M104 304H136V320H104V304Z" fill="#265EC2"/>
<path d="M152 304H232V320H152V304Z" fill="#265EC2"/>
<path d="M104 336H232V352H104V336Z" fill="#265EC2"/>
</svg>
