<svg width="512" height="512" viewBox="0 0 512 512" fill="none" xmlns="http://www.w3.org/2000/svg">
<path d="M256 24C226.834 23.9819 198.351 32.8241 174.323 49.3554C150.294 65.8867 131.855 89.3272 121.446 116.572C111.037 143.818 109.15 173.582 116.035 201.924C122.92 230.265 138.252 255.847 160 275.28C171.82 285.912 185.342 294.485 200 300.64C212.744 306.088 226.223 309.619 240 311.12C250.635 312.293 261.366 312.293 272 311.12C285.778 309.619 299.257 306.088 312 300.64C326.659 294.485 340.18 285.912 352 275.28C373.719 255.834 389.023 230.253 395.891 201.922C402.758 173.59 400.864 143.841 390.46 116.608C380.056 89.376 361.632 65.9427 337.623 49.4069C313.614 32.871 285.152 24.0116 256 24V24ZM352 225.68C351.957 225.723 351.929 225.779 351.92 225.84C347.218 233.601 341.605 240.771 335.2 247.2C328.279 254.111 320.478 260.082 312 264.96C311.92 265.04 311.84 265.12 311.76 265.12C299.507 272.202 286.01 276.873 272 278.88C261.386 280.373 250.615 280.373 240 278.88C225.99 276.873 212.494 272.202 200.24 265.12C200.16 265.12 200.08 265.04 200 264.96C191.522 260.082 183.722 254.111 176.8 247.2C170.396 240.771 164.783 233.601 160.08 225.84C160.072 225.779 160.044 225.723 160 225.68C151.005 210.729 145.635 193.879 144.32 176.48C144.08 173.68 144 170.88 144 168C144 138.296 155.8 109.808 176.804 88.8041C197.808 67.8 226.296 56 256 56C285.704 56 314.192 67.8 335.196 88.8041C356.2 109.808 368 138.296 368 168C368 170.88 367.92 173.68 367.68 176.48C366.366 193.879 360.996 210.729 352 225.68V225.68Z" fill="#B0D1F9"/>
<path d="M256 152C251.76 152.013 247.698 153.702 244.7 156.7C241.702 159.698 240.013 163.76 240 168C240.031 172.234 241.727 176.285 244.721 179.279C247.715 182.273 251.766 183.969 256 184C260.243 184 264.313 182.314 267.314 179.314C270.314 176.313 272 172.243 272 168C272 163.757 270.314 159.687 267.314 156.686C264.313 153.686 260.243 152 256 152Z" fill="#B0D1F9"/>
<path d="M498.4 324.64C496.456 317.49 491.77 311.396 485.36 307.68C482.181 305.813 478.659 304.603 475.004 304.122C471.349 303.641 467.634 303.899 464.08 304.88C460.52 305.823 457.182 307.461 454.258 309.699C451.334 311.937 448.881 314.731 447.04 317.92L440 330.16V228C440 220.574 437.05 213.452 431.799 208.201C426.548 202.95 419.426 200 412 200C409.363 200.022 406.745 200.454 404.24 201.28C409.289 179.03 409.265 155.929 404.169 133.69C399.073 111.45 389.035 90.6438 374.801 72.8127C360.567 54.9816 342.502 40.5836 321.944 30.6865C301.387 20.7894 278.866 15.647 256.05 15.6409C233.234 15.6347 210.71 20.7649 190.147 30.6509C169.585 40.5369 151.511 54.9252 137.268 72.7486C123.024 90.572 112.976 111.373 107.868 133.61C102.759 155.846 102.723 178.947 107.76 201.2C105.244 200.432 102.631 200.028 99.9999 200C92.5739 200 85.4519 202.95 80.2009 208.201C74.9499 213.452 71.9999 220.574 71.9999 228V330.16L64.9599 317.92C63.1192 314.731 60.6662 311.937 57.7418 309.699C54.8174 307.461 51.4795 305.823 47.9199 304.88C44.3796 303.896 40.6772 303.637 37.0344 304.118C33.3916 304.599 29.8834 305.811 26.7199 307.68C23.526 309.506 20.7233 311.944 18.4721 314.854C16.2209 317.764 14.5653 321.09 13.5999 324.64C11.698 331.826 12.704 339.471 16.3999 345.92L87.9999 469.84V496H104V467.68C103.967 466.284 103.611 464.915 102.96 463.68L30.3199 337.92C29.1379 335.869 28.5888 333.515 28.7417 331.152C28.8947 328.79 29.7428 326.526 31.1794 324.645C32.6161 322.763 34.577 321.349 36.8155 320.579C39.0541 319.81 41.4702 319.72 43.7599 320.32C45.2892 320.712 46.723 321.411 47.9743 322.373C49.2257 323.336 50.2686 324.542 51.0399 325.92L73.0399 364C73.7448 365.221 74.7597 366.234 75.9819 366.936C77.2041 367.639 78.5902 368.006 79.9999 368H87.9999C98.6086 368 108.783 372.214 116.284 379.716C123.786 387.217 128 397.391 128 408V424H144V408C143.983 393.153 138.078 378.919 127.579 368.421C117.081 357.922 102.847 352.017 87.9999 352V228C88.002 225.628 88.7069 223.31 90.0256 221.339C91.3444 219.367 93.2177 217.831 95.4091 216.923C97.6006 216.016 100.012 215.778 102.338 216.241C104.664 216.703 106.802 217.844 108.48 219.52C109.601 220.628 110.49 221.949 111.095 223.405C111.699 224.861 112.007 226.423 112 228V328H128V249.68C134.813 260.234 142.871 269.931 152 278.56V328H168V291.68C175.547 297.083 183.582 301.77 192 305.68V328H208V312.08C215.815 314.72 223.845 316.674 232 317.92V430.08L216.88 460.4C216.309 461.515 216.007 462.748 216 464V496H232V465.92L247.12 435.6C247.691 434.485 247.992 433.252 248 432V319.6C250.64 319.76 253.28 320 256 320C258.72 320 261.36 319.76 264 319.6V432C264.007 433.252 264.309 434.485 264.88 435.6L280 465.92V496H296V464C295.992 462.748 295.691 461.515 295.12 460.4L280 430.08V317.92C288.154 316.674 296.185 314.72 304 312.08V328H320V305.68C328.418 301.77 336.453 297.083 344 291.68V328H360V278.56C369.129 269.931 377.187 260.234 384 249.68V328H400V228C400 224.817 401.264 221.765 403.515 219.515C405.765 217.264 408.817 216 412 216C415.183 216 418.235 217.264 420.485 219.515C422.736 221.765 424 224.817 424 228V352C409.153 352.017 394.919 357.922 384.421 368.421C373.922 378.919 368.017 393.153 368 408V424H384V408C384 397.391 388.214 387.217 395.716 379.716C403.217 372.214 413.391 368 424 368H432C433.41 368.006 434.796 367.639 436.018 366.936C437.24 366.234 438.255 365.221 438.96 364L460.96 325.92C461.731 324.542 462.774 323.336 464.026 322.373C465.277 321.411 466.711 320.712 468.24 320.32C470.53 319.72 472.946 319.81 475.184 320.579C477.423 321.349 479.384 322.763 480.82 324.645C482.257 326.526 483.105 328.79 483.258 331.152C483.411 333.515 482.862 335.869 481.68 337.92L409.04 463.68C408.388 464.915 408.032 466.284 408 467.68V496H424V469.84L495.6 345.92C499.296 339.471 500.302 331.826 498.4 324.64V324.64ZM256 304C229.102 304 202.807 296.024 180.442 281.08C158.077 266.136 140.646 244.896 130.352 220.045C120.059 195.194 117.366 167.849 122.613 141.468C127.861 115.086 140.813 90.8534 159.833 71.8335C178.853 52.8135 203.086 39.8608 229.468 34.6132C255.849 29.3656 283.194 32.0589 308.045 42.3524C332.896 52.6459 354.136 70.0774 369.08 92.4424C384.024 114.808 392 141.102 392 168C391.949 204.054 377.604 238.616 352.11 264.11C326.616 289.604 292.054 303.949 256 304V304Z" fill="#265EC2"/>
<path d="M256 48C232.266 48 209.066 55.0379 189.332 68.2236C169.598 81.4094 154.217 100.151 145.135 122.078C136.052 144.005 133.676 168.133 138.306 191.411C142.936 214.689 154.365 236.071 171.147 252.853C187.93 269.635 209.311 281.064 232.589 285.694C255.867 290.324 279.995 287.948 301.922 278.866C323.849 269.783 342.591 254.402 355.776 234.668C368.962 214.935 376 191.734 376 168C375.964 136.185 363.31 105.684 340.813 83.1869C318.317 60.6904 287.815 48.036 256 48V48ZM359.592 176C357.919 197.984 349.263 218.859 334.888 235.576L323.88 224.568L312.568 235.88L323.576 246.888C306.859 261.263 285.985 269.919 264 271.592V256H248V271.592C226.015 269.923 205.139 261.267 188.424 246.888L199.432 235.88L188.12 224.568L177.112 235.576C162.737 218.859 154.081 197.984 152.408 176H168V160H152.408C154.081 138.016 162.737 117.141 177.112 100.424L188.12 111.432L199.432 100.12L188.424 89.112C205.139 74.7333 226.015 66.077 248 64.408V80H264V64.408C285.985 66.0809 306.859 74.7367 323.576 89.112L312.568 100.12L323.88 111.432L334.888 100.424C349.263 117.141 357.919 138.016 359.592 160H344V176H359.592Z" fill="#265EC2"/>
<path d="M264 145.472V96H248V145.472C243.337 147.121 239.297 150.17 236.433 154.202C233.569 158.235 232.02 163.054 232 168C232.014 171.564 232.834 175.078 234.4 178.28L210.336 202.344L221.648 213.656L245.72 189.6C248.922 191.166 252.436 191.986 256 192C261.655 192.011 267.13 190.02 271.458 186.38C275.785 182.74 278.685 177.686 279.643 172.113C280.601 166.541 279.556 160.808 276.693 155.932C273.83 151.056 269.333 147.351 264 145.472ZM256 176C254.418 176 252.871 175.531 251.555 174.652C250.24 173.773 249.214 172.523 248.609 171.061C248.003 169.6 247.845 167.991 248.154 166.439C248.462 164.887 249.224 163.462 250.343 162.343C251.462 161.224 252.887 160.462 254.439 160.154C255.991 159.845 257.6 160.003 259.061 160.609C260.523 161.214 261.773 162.24 262.652 163.555C263.531 164.871 264 166.418 264 168C264 170.122 263.157 172.157 261.657 173.657C260.157 175.157 258.122 176 256 176Z" fill="#265EC2"/>
</svg>
